<svg width="187" height="175" viewBox="0 0 187 175" fill="none" xmlns="http://www.w3.org/2000/svg">
<path d="M25.7-21.3L25.7-21.3Q27.35-21.3 28.28-20.4 29.2-19.5 29.2-17.9L29.2-17.9Q29.2-17.5 29.13-17.07 29.05-16.65 28.95-16.35L28.95-16.35Q28.3-16.45 27.5-16.53 26.7-16.6 25.6-16.6L25.6-16.6Q23.45-16.6 21.25-16.23 19.05-15.85 17.05-15.6L17.05-15.6Q15.9-12.95 14.95-10.48 14-8 13.33-5.95 12.65-3.9 12.28-2.4 11.9-0.9 11.85-0.15L11.85-0.15Q15.9-1 20.03-1.6 24.15-2.2 28.7-2.5L28.7-2.5Q29.25-1.65 29.63-0.65 30 0.35 30 1.5L30 1.5Q30 1.8 30 2.15 30 2.5 29.9 2.85L29.9 2.85Q28.5 2.8 26.95 2.78 25.4 2.75 22.9 2.75L22.9 2.75Q21.25 2.75 19.78 2.83 18.3 2.9 16.8 3.05 15.3 3.2 13.63 3.45 11.95 3.7 9.85 4.05L9.85 4.05Q7.55 3.15 5.4-0.35L5.4-0.35Q6.25-2.15 7.78-5.83 9.3-9.5 11.65-15.65L11.65-15.65Q9.4-16.35 8.7-18.15L8.7-18.15Q8.95-18.4 10.15-18.78 11.35-19.15 13.1-19.55L13.1-19.55Q13.85-21.5 14.38-22.95 14.9-24.4 15.3-25.68 15.7-26.95 16.03-28.18 16.35-29.4 16.65-30.85L16.65-30.85Q14.9-30.95 13.9-31.83 12.9-32.7 12.9-34.1L12.9-34.1Q12.9-34.5 13.03-35.05 13.15-35.6 13.3-36L13.3-36Q14.3-35.85 15.23-35.8 16.15-35.75 17.65-35.75L17.65-35.75Q20.8-35.75 23.55-35.93 26.3-36.1 28.53-36.3 30.75-36.5 32.35-36.68 33.95-36.85 34.8-36.85L34.8-36.85Q35.95-36.85 36.85-35.65 37.75-34.45 38.2-32.25L38.2-32.25Q36.65-32.4 35.68-32.45 34.7-32.5 33.95-32.5L33.95-32.5Q31.2-32.5 28.93-32.23 26.65-31.95 24.55-31.65L24.55-31.65Q24.25-31.2 23.88-30.5 23.5-29.8 22.9-28.55 22.3-27.3 21.43-25.4 20.55-23.5 19.3-20.65L19.3-20.65Q21.2-20.95 22.88-21.13 24.55-21.3 25.7-21.3ZM51.55-20.2L51.55-20.2Q52.05-20.2 52.72-20.03 53.4-19.85 53.95-19.58 54.5-19.3 54.87-19 55.25-18.7 55.25-18.45L55.25-18.45Q54.25-16.35 53.4-14.23 52.55-12.1 51.95-10.15 51.35-8.2 51.02-6.5 50.7-4.8 50.7-3.55L50.7-3.55Q50.7-2.15 51-1.23 51.3-0.3 52 0.1L52 0.1Q51.4 0.5 50.45 0.75 49.5 1 48.75 1L48.75 1Q46.05 1 46.05-2.7L46.05-2.7Q46.05-5.55 47.95-10.5L47.95-10.5Q46.95-8.2 45.65-6.18 44.35-4.15 43-2.6 41.65-1.05 40.27-0.08 38.9 0.9 37.75 1.1L37.75 1.1Q35.9 1 34.75-0.68 33.6-2.35 33.6-4.95L33.6-4.95Q33.6-7.75 34.8-10.85 36-13.95 37.87-16.6 39.75-19.25 41.95-21.03 44.15-22.8 46.2-22.9L46.2-22.9Q46.7-22.75 47.32-22.3 47.95-21.85 48.52-21.25 49.1-20.65 49.5-20.03 49.9-19.4 49.95-18.95L49.95-18.95Q47.95-18.65 45.82-17 43.7-15.35 41.97-13.03 40.25-10.7 39.15-8.05 38.05-5.4 38.05-3.1L38.05-3.1Q38.05-2.15 38.75-1.9L38.75-1.9Q40.2-2.2 42.1-4.38 44-6.55 46.7-11.1L46.7-11.1Q47.2-12 47.82-13.1 48.45-14.2 49.1-15.4 49.75-16.6 50.37-17.82 51-19.05 51.55-20.2ZM75.05-19.9L75.05-19.9Q75-18.95 74.72-17.93 74.45-16.9 74.05-16.07 73.65-15.25 73.2-14.7 72.75-14.15 72.35-14.15L72.35-14.15Q71.8-14.2 71.7-14.9L71.7-14.9Q71.7-15.05 71.82-15.38 71.95-15.7 72.1-16.1 72.25-16.5 72.37-16.9 72.5-17.3 72.5-17.6L72.5-17.6Q72.5-18.3 72.17-18.78 71.85-19.25 71.3-19.25L71.3-19.25Q69.3-19.25 68.25-16.75 67.2-14.25 67.2-9.4L67.2-9.4Q67.2-8.9 67.25-8.8L67.25-8.8Q68.3-8.85 69.12-8.88 69.95-8.9 70.75-8.9L70.75-8.9Q70.8-8.8 70.8-8.5L70.8-8.5Q70.8-8.05 70.6-7.85L70.6-7.85Q69.45-7.6 68.77-7.43 68.1-7.25 67.75-7.1 67.4-6.95 67.32-6.78 67.25-6.6 67.25-6.3L67.25-6.3Q67.25-5.9 67.27-5.5 67.3-5.1 67.3-4.5L67.3-4.5Q67.3-0.3 65.02 2.25 62.75 4.8 58.7 5.2L58.7 5.2Q58 5.15 57.25 4.8 56.5 4.45 55.82 3.9 55.15 3.35 54.65 2.68 54.15 2 53.95 1.3L53.95 1.3Q53.95-0.6 54.75-2.33 55.55-4.05 56.92-5.38 58.3-6.7 60.17-7.53 62.05-8.35 64.25-8.5L64.25-8.5Q64.25-9.75 64-10.95 63.75-12.15 63.47-13.28 63.2-14.4 62.95-15.48 62.7-16.55 62.7-17.6L62.7-17.6Q62.7-18.95 63.25-20.28 63.8-21.6 64.7-22.73 65.6-23.85 66.8-24.65 68-25.45 69.3-25.75L69.3-25.75Q69.85-25.6 70.77-24.88 71.7-24.15 72.6-23.25 73.5-22.35 74.2-21.43 74.9-20.5 75.05-19.9ZM58.55 2.9L58.55 2.9Q59.75 2.4 60.82 1.45 61.9 0.5 62.7-0.7 63.5-1.9 63.97-3.25 64.45-4.6 64.45-5.9L64.45-5.9Q63.45-5.75 62.25-4.98 61.05-4.2 60-3.13 58.95-2.05 58.25-0.9 57.55 0.25 57.55 1.1L57.55 1.1Q57.55 2.2 58.55 2.9ZM93.89-7.75L93.89-7.75Q92.74-4.1 91.59-1.1 90.44 1.9 89.14 4.42 87.84 6.95 86.34 9.08 84.84 11.2 83.04 13.1L83.04 13.1Q80.74 15.5 78.29 16.78 75.84 18.05 73.39 18.05L73.39 18.05Q72.14 18.05 70.92 17.78 69.69 17.5 68.62 17.03 67.54 16.55 66.72 15.93 65.89 15.3 65.54 14.6L65.54 14.6Q65.54 14 66.24 13.55L66.24 13.55Q66.84 14.1 67.24 14.4 67.64 14.7 68.02 14.9 68.39 15.1 68.82 15.15 69.24 15.2 69.79 15.2L69.79 15.2Q72.64 15.2 75.37 13.53 78.09 11.85 80.52 8.78 82.94 5.7 84.94 1.33 86.94-3.05 88.34-8.45L88.34-8.45Q87.69-7.45 86.74-6 85.79-4.55 84.64-3.13 83.49-1.7 82.27-0.55 81.04 0.6 79.89 1L79.89 1Q79.09 0.95 78.22 0.68 77.34 0.4 76.57-0.1 75.79-0.6 75.19-1.3 74.59-2 74.39-2.9L74.39-2.9Q74.39-4.35 74.49-5.23 74.59-6.1 74.84-7.15L74.84-7.15Q75.29-9.05 76.17-11.45 77.04-13.85 78.22-16.18 79.39-18.5 80.82-20.53 82.24-22.55 83.79-23.7L83.79-23.7Q84.19-23.7 84.79-23.63 85.39-23.55 86.04-23.35 86.69-23.15 87.29-22.88 87.89-22.6 88.34-22.15L88.34-22.15Q87.79-21.65 85.94-18.8 84.09-15.95 81.84-10.6L81.84-10.6Q81.59-10.05 81.24-9 80.89-7.95 80.57-6.8 80.24-5.65 79.99-4.55 79.74-3.45 79.74-2.8L79.74-2.8Q79.74-2.4 79.87-2.2 79.99-2 80.09-1.9L80.09-1.9Q80.99-2.05 82.49-3.38 83.99-4.7 85.89-7.5L85.89-7.5Q87.09-9.3 88.09-11.08 89.09-12.85 90.07-14.65 91.04-16.45 92.09-18.35 93.14-20.25 94.34-22.25L94.34-22.25Q94.99-22.25 95.74-22.1 96.49-21.95 97.19-21.73 97.89-21.5 98.42-21.23 98.94-20.95 99.19-20.65L99.19-20.65Q97.64-17.35 96.29-14.2 94.94-11.05 93.89-7.75ZM104.14 0.35L104.14 0.35Q106.44-1.2 108.64-3.63 110.84-6.05 112.64-8.88 114.44-11.7 115.69-14.75 116.94-17.8 117.39-20.6L117.39-20.6Q117.39-21.2 116.74-21.4L116.74-21.4Q116.04-21.4 114.82-20.18 113.59-18.95 112.12-17.05 110.64-15.15 109.12-12.8 107.59-10.45 106.34-8.13 105.09-5.8 104.22-3.78 103.34-1.75 103.24-0.5L103.24-0.5Q102.74-0.5 102.39-1.5L102.39-1.5Q102.29-1.75 102.04-2.02 101.79-2.3 101.24-2.7L101.24-2.7Q100.99-2.9 100.74-3.18 100.49-3.45 100.39-3.65L100.39-3.65Q100.19-4.05 100.19-4.95L100.19-4.95Q100.19-7.9 100.94-11.6 101.69-15.3 102.92-19.15 104.14-23 105.79-26.73 107.44-30.45 109.22-33.55 110.99-36.65 112.79-38.8 114.59-40.95 116.19-41.65L116.19-41.65Q116.69-41.5 117.39-41.15 118.09-40.8 118.79-40.35 119.49-39.9 120.12-39.45 120.74-39 121.04-38.65L121.04-38.65Q115.54-34.2 111.52-27.23 107.49-20.25 104.94-10.75L104.94-10.75Q106.34-13.35 108.09-15.78 109.84-18.2 111.57-20.05 113.29-21.9 114.87-23 116.44-24.1 117.49-24.1L117.49-24.1Q118.29-23.9 119.04-23.4 119.79-22.9 120.39-22.18 120.99-21.45 121.39-20.63 121.79-19.8 121.89-18.9L121.89-18.9Q121.84-16.8 121.17-14.43 120.49-12.05 119.37-9.75 118.24-7.45 116.82-5.35 115.39-3.25 113.82-1.68 112.24-0.1 110.67 0.85 109.09 1.8 107.69 1.8L107.69 1.8Q107.09 1.8 106.47 1.68 105.84 1.55 105.32 1.33 104.79 1.1 104.47 0.85 104.14 0.6 104.14 0.35ZM129.04 1.75L129.04 1.75Q126.19 1.45 124.49-0.75 122.79-2.95 122.79-6.35L122.79-6.35Q122.79-8.35 123.39-10.5 123.99-12.65 125.09-14.68 126.19-16.7 127.69-18.5 129.19-20.3 130.94-21.6L130.94-21.6Q133.69-23.65 136.09-23.65L136.09-23.65Q137.69-22.8 139.24-20.1L139.24-20.1Q139.49-20.1 139.69-20.13 139.89-20.15 140.14-20.15L140.14-20.15Q142.79-20.15 142.79-15.45L142.79-15.45Q142.79-12.3 141.76-9.47 140.74-6.65 138.91-4.35 137.09-2.05 134.56-0.48 132.04 1.1 129.04 1.75ZM131.59-14L131.59-14Q130.74-12.85 129.99-11.5 129.24-10.15 128.69-8.78 128.14-7.4 127.84-6.13 127.54-4.85 127.54-3.85L127.54-3.85Q127.54-2.65 127.94-1.55 128.34-0.45 128.84-0.3L128.84-0.3Q131.09-0.8 132.96-2.18 134.84-3.55 136.21-5.6 137.59-7.65 138.36-10.25 139.14-12.85 139.14-15.8L139.14-15.8Q139.14-17.1 138.99-17.85 138.84-18.6 138.49-19.15L138.49-19.15Q136.29-18.5 134.56-17.05 132.84-15.6 131.59-14ZM151.09 1.75L151.09 1.75Q148.24 1.45 146.54-0.75 144.84-2.95 144.84-6.35L144.84-6.35Q144.84-8.35 145.44-10.5 146.04-12.65 147.14-14.68 148.24-16.7 149.74-18.5 151.24-20.3 152.99-21.6L152.99-21.6Q155.74-23.65 158.14-23.65L158.14-23.65Q159.74-22.8 161.29-20.1L161.29-20.1Q161.54-20.1 161.74-20.13 161.94-20.15 162.19-20.15L162.19-20.15Q164.84-20.15 164.84-15.45L164.84-15.45Q164.84-12.3 163.81-9.47 162.79-6.65 160.96-4.35 159.14-2.05 156.61-0.48 154.09 1.1 151.09 1.75ZM153.64-14L153.64-14Q152.79-12.85 152.04-11.5 151.29-10.15 150.74-8.78 150.19-7.4 149.89-6.13 149.59-4.85 149.59-3.85L149.59-3.85Q149.59-2.65 149.99-1.55 150.39-0.45 150.89-0.3L150.89-0.3Q153.14-0.8 155.01-2.18 156.89-3.55 158.26-5.6 159.64-7.65 160.41-10.25 161.19-12.85 161.19-15.8L161.19-15.8Q161.19-17.1 161.04-17.85 160.89-18.6 160.54-19.15L160.54-19.15Q158.34-18.5 156.61-17.05 154.89-15.6 153.64-14ZM167.33-4.7L167.33-4.7Q167.33-6.5 168.26-9.7 169.18-12.9 170.68-16.7 172.18-20.5 174.08-24.55 175.98-28.6 177.91-32.1 179.83-35.6 181.61-38.15 183.38-40.7 184.63-41.6L184.63-41.6Q185.33-41.55 186.16-41 186.98-40.45 187.68-39.68 188.38-38.9 188.86-38.05 189.33-37.2 189.33-36.5L189.33-36.5Q187.08-34.7 184.76-31.88 182.43-29.05 180.33-25.68 178.23-22.3 176.46-18.53 174.68-14.75 173.48-11.1L173.48-11.1Q175.08-13.85 176.83-16.1 178.58-18.35 180.33-19.95 182.08-21.55 183.76-22.43 185.43-23.3 186.93-23.35L186.93-23.35Q189.13-21.75 189.13-19.1L189.13-19.1Q189.13-17.5 188.48-15.88 187.83-14.25 186.76-12.88 185.68-11.5 184.31-10.53 182.93-9.55 181.43-9.25L181.43-9.25Q181.93-7.5 182.71-5.7 183.48-3.9 184.56-2.2 185.63-0.5 187.01 0.95 188.38 2.4 190.13 3.4L190.13 3.4Q189.88 3.9 189.38 4.4 188.88 4.9 188.18 5.28 187.48 5.65 186.66 5.88 185.83 6.1 185.03 6.1L185.03 6.1Q183.68 6.1 182.51 4.75 181.33 3.4 180.38 0.85L180.38 0.85Q179.63-1.2 178.93-4.05 178.23-6.9 177.68-10L177.68-10Q178.38-10.45 179.43-11.33 180.48-12.2 181.63-13.35L181.63-13.35Q186.03-17.6 186.03-20.7L186.03-20.7Q186.03-21.1 185.48-21.1L185.48-21.1Q184.48-21.05 183.13-20.15 181.78-19.25 180.26-17.65 178.73-16.05 177.16-13.9 175.58-11.75 174.13-9.25L174.13-9.25Q173.53-8.25 173.03-6.95 172.53-5.65 172.16-4.28 171.78-2.9 171.58-1.55 171.38-0.2 171.38 0.95L171.38 0.95Q171.38 1.65 171.53 2.1L171.53 2.1Q169.98 1.95 169.63 1.3L169.63 1.3Q169.23 0.7 168.96 0.33 168.68-0.05 168.38-0.3L168.38-0.3Q167.93-0.65 167.63-1.8 167.33-2.95 167.33-4.7ZM192.13-3.35L192.13-3.35Q192.13-3.8 192.21-4.48 192.28-5.15 192.48-6.28 192.68-7.4 193.01-9 193.33-10.6 193.83-12.85L193.83-12.85Q193.93-13.35 194.28-14.45 194.63-15.55 195.21-16.78 195.78-18 196.61-19.15 197.43-20.3 198.58-20.85L198.58-20.85Q199.43-20.65 200.83-19.83 202.23-19 203.23-17.55L203.23-17.55Q202.08-16.25 201.31-14.95 200.53-13.65 199.91-12.25 199.28-10.85 198.76-9.35 198.23-7.85 197.58-6.2L197.58-6.2Q197.03-4.8 196.58-3.33 196.13-1.85 196.08-0.75L196.08-0.75Q196.08 0.15 196.06 0.53 196.03 0.9 195.78 0.9L195.78 0.9Q195.58 0.9 194.98 0.65 194.38 0.4 193.76-0.13 193.13-0.65 192.63-1.45 192.13-2.25 192.13-3.35ZM201.68-25.05L201.68-25.05Q201.68-25.35 201.83-25.95L201.83-25.95Q201.58-26.2 201.41-26.7 201.23-27.2 201.23-27.6L201.23-27.6Q201.23-28.05 201.36-28.83 201.48-29.6 201.68-30.5 201.88-31.4 202.18-32.38 202.48-33.35 202.78-34.15L202.78-34.15Q203.38-34.15 204.26-33.83 205.13-33.5 206.03-32.98 206.93-32.45 207.68-31.83 208.43-31.2 208.83-30.65L208.83-30.65Q208.28-30.1 207.38-29.13 206.48-28.15 205.63-27.08 204.78-26 204.08-25.05 203.38-24.1 203.18-23.7L203.18-23.7Q202.58-23.8 202.13-24.23 201.68-24.65 201.68-25.05ZM211.98-24.25L211.98-24.25Q213.28-23.85 214.43-22.48 215.58-21.1 216.13-19.45L216.13-19.45Q215.58-18.1 214.43-16.2 213.28-14.3 212.13-12.33 210.98-10.35 210.05-8.58 209.13-6.8 208.98-5.65L208.98-5.65Q209.78-6.5 210.75-7.63 211.73-8.75 212.65-9.88 213.58-11 214.38-11.93 215.18-12.85 215.63-13.3L215.63-13.3Q216.58-14.3 217.88-15.63 219.18-16.95 220.6-18.13 222.03-19.3 223.48-20.13 224.93-20.95 226.13-20.95L226.13-20.95Q227.43-20.95 228.3-20.08 229.18-19.2 229.68-18.25L229.68-18.25Q229.68-18.15 229.3-17.98 228.93-17.8 228.23-17L228.23-17Q227.53-16.1 226.65-14.53 225.78-12.95 224.95-11.13 224.13-9.3 223.58-7.4 223.03-5.5 223.03-3.95L223.03-3.95Q223.03-2.7 223.35-2.35 223.68-2 224.28-2L224.28-2Q224.83-2 225.43-2.25 226.03-2.5 226.38-2.5L226.38-2.5Q226.58-2.4 226.7-2.08 226.83-1.75 226.83-1.5L226.83-1.5Q226.43-1.15 225.88-0.8 225.33-0.45 224.73-0.15 224.13 0.15 223.55 0.35 222.98 0.55 222.53 0.55L222.53 0.55Q221.08 0.55 220.15 0.13 219.23-0.3 218.7-1 218.18-1.7 217.98-2.68 217.78-3.65 217.78-4.75L217.78-4.75Q217.78-5.35 217.88-6.1 217.98-6.85 218.28-7.88 218.58-8.9 219.13-10.33 219.68-11.75 220.53-13.75L220.53-13.75Q220.43-13.75 219.18-13.05 217.93-12.35 216.48-10.9L216.48-10.9Q214.13-8.65 212.25-6.45 210.38-4.25 208.43-1.55L208.43-1.55Q207.33 0 206.5 1.07 205.68 2.15 205.08 2.5L205.08 2.5Q204.03 1.9 203.53 0.83 203.03-0.25 202.78-1.4L202.78-1.4Q202.78-2.35 203.05-3.8 203.33-5.25 203.8-7.03 204.28-8.8 204.98-10.75 205.68-12.7 206.53-14.65L206.53-14.65Q208.43-19.05 210-21.55 211.58-24.05 211.98-24.25ZM220.78 14.9L220.78 14.9Q220.78 14.6 220.98 14.35 221.18 14.1 221.43 13.85L221.43 13.85Q222.03 14.4 222.45 14.7 222.88 15 223.25 15.2 223.63 15.4 224.03 15.45 224.43 15.5 224.98 15.5L224.98 15.5Q227.58 15.5 229.93 14.13 232.28 12.75 234.35 10.15 236.43 7.55 238.13 3.8 239.83 0.05 241.13-4.7L241.13-4.7Q240.53-4.1 239.65-3.38 238.78-2.65 237.83-2 236.88-1.35 235.95-0.8 235.03-0.25 234.38 0L234.38 0Q233.53-0.15 232.8-0.73 232.08-1.3 231.53-2.15 230.98-3 230.68-4.08 230.38-5.15 230.38-6.35L230.38-6.35Q230.38-8.3 231.1-10.35 231.83-12.4 233.03-14.38 234.23-16.35 235.85-18.1 237.48-19.85 239.3-21.15 241.13-22.45 243-23.23 244.88-24 246.68-24L246.68-24Q248.43-24 249.3-23.28 250.18-22.55 250.58-20.8L250.58-20.8Q250.03-21.1 249.18-21.1L249.18-21.1Q247.98-21.1 246.4-20.15 244.83-19.2 243.2-17.68 241.58-16.15 239.98-14.18 238.38-12.2 237.15-10.15 235.93-8.1 235.15-6.15 234.38-4.2 234.38-2.65L234.38-2.65Q234.38-2.3 234.43-2.23 234.48-2.15 234.58-2.15L234.58-2.15Q235.03-2.15 235.8-2.65 236.58-3.15 237.55-3.93 238.53-4.7 239.58-5.73 240.63-6.75 241.58-7.8L241.58-7.8Q243.73-10.2 245.5-13.18 247.28-16.15 248.33-18.95L248.33-18.95Q249.68-18.85 250.73-18.5 251.78-18.15 252.18-17.75L252.18-17.75Q250.48-13.85 249.45-11.2 248.43-8.55 247.68-6.5L247.68-6.5Q246.33-2.9 245.15 0.08 243.98 3.05 242.75 5.58 241.53 8.1 240.1 10.28 238.68 12.45 236.88 14.45L236.88 14.45Q236.03 15.4 234.95 16.13 233.88 16.85 232.75 17.35 231.63 17.85 230.55 18.1 229.48 18.35 228.58 18.35L228.58 18.35Q227.38 18.35 226.13 18.07 224.88 17.8 223.8 17.32 222.73 16.85 221.93 16.23 221.13 15.6 220.78 14.9Z" opacity="1" transform="matrix(1,0,0,1,0,0)" fill="#3caa9f" class="undefined-text-0" data-fill-palette-color="primary" id="text-0"></path></svg></g></svg></g></svg></g></svg></g></svg></g></svg></g></svg></g><g><path d="M245.816 0c68.262 0 123.6 55.338 123.6 123.6 0 68.262-55.338 123.6-123.6 123.6-55.474 0-102.412-36.545-118.052-86.874h2.809c15.547 48.826 61.264 84.194 115.243 84.195 66.783 0 120.921-54.138 120.92-120.921 0-66.783-54.138-120.921-120.92-120.921-53.978 0-99.696 35.368-115.243 84.195h-2.809c15.64-50.328 62.578-86.874 118.052-86.874z" fill="#3caa9f" stroke="transparent" data-fill-palette-color="tertiary"></path></g></svg></g><defs></defs></svg><rect width="395.52" height="247.2" fill="none" stroke="none" visibility="hidden"></rect></g></svg></g></svg>