<?xml version="1.0" standalone="no"?>
<!DOCTYPE svg PUBLIC "-//W3C//DTD SVG 20010904//EN"
 "http://www.w3.org/TR/2001/REC-SVG-20010904/DTD/svg10.dtd">
<svg fill="#ffffff" height="18px" width="25px" version="1.1" id="Layer_1" xmlns="http://www.w3.org/2000/svg" xmlns:xlink="http://www.w3.org/1999/xlink" 
	 viewBox="0 0 368.666 368.666" xml:space="preserve">

<g transform="translate(0.000000,512.000000) scale(0.100000,-0.100000)"
fill="#ffffff" stroke="none">
<path d="M1822 3815 l-712 -345 -115 0 c-184 0 -195 -12 -195 -209 0 -129 0
-131 28 -162 21 -24 38 -32 75 -36 l47 -6 0 -1008 0 -1009 -73 0 c-100 0 -111
-12 -116 -126 l-3 -84 -38 0 c-51 0 -83 -27 -83 -70 0 -22 7 -39 22 -52 22
-17 89 -18 1847 -18 1798 0 1824 0 1844 20 17 17 19 29 14 122 -10 204 -12
208 -121 208 l-73 0 0 1009 0 1008 47 6 c37 4 54 12 75 36 28 31 28 33 28 162
0 197 -11 209 -194 209 l-114 0 -713 345 c-393 190 -725 345 -739 345 -14 0
-346 -155 -738 -345z m1304 -72 l553 -268 -560 -3 c-307 -1 -811 -1 -1118 0
l-559 3 552 267 c303 147 557 267 565 268 8 0 263 -120 567 -267z m1054 -478
l0 -65 -1620 0 -1620 0 0 65 0 65 1620 0 1620 0 0 -65z m-2770 -310 c0 -99 2
-107 25 -130 18 -19 35 -25 70 -25 l45 0 0 -770 c0 -576 -3 -770 -12 -770 -23
0 -81 -54 -99 -94 -10 -22 -19 -60 -19 -84 l0 -42 -162 2 -163 3 -3 1008 -2
1007 160 0 160 0 0 -105z m2160 45 l0 -60 -1010 0 -1010 0 0 60 0 60 1010 0
1010 0 0 -60z m458 -947 l-3 -1008 -162 -3 -163 -2 0 42 c0 24 -9 62 -19 84
-18 40 -76 94 -99 94 -9 0 -12 194 -12 770 l0 770 45 0 c35 0 52 6 70 25 23
23 25 31 25 130 l0 105 160 0 160 0 -2 -1007z m-2238 -18 l0 -765 -50 0 -50 0
0 765 0 765 50 0 50 0 0 -765z m1400 -5 c0 -576 -3 -770 -12 -770 -23 0 -81
-54 -99 -94 -10 -22 -19 -60 -19 -83 l0 -43 -79 0 -80 0 -3 478 -3 477 -29 62
c-33 73 -103 143 -173 175 -68 30 -198 30 -266 0 -70 -32 -140 -102 -173 -175
l-29 -62 -3 -477 -3 -478 -80 0 -79 0 0 43 c0 23 -9 61 -19 83 -18 40 -76 94
-99 94 -9 0 -12 194 -12 770 l0 770 630 0 630 0 0 -770z m240 5 l0 -765 -50 0
-50 0 0 765 0 765 50 0 50 0 0 -765z m-795 66 c46 -21 101 -79 112 -119 5 -15
8 -232 8 -482 l0 -455 -195 0 -195 0 0 455 c0 250 3 467 8 482 18 68 114 138
187 138 19 0 53 -9 75 -19z m-726 -985 c7 -8 11 -27 9 -43 l-3 -28 -175 0
-175 0 -3 28 c-6 53 6 57 178 57 125 0 160 -3 169 -14z m1640 0 c7 -8 11 -27
9 -43 l-3 -28 -175 0 -175 0 -3 28 c-6 53 6 57 178 57 125 0 160 -3 169 -14z
m671 -251 l0 -35 -1660 0 -1660 0 0 35 0 35 1660 0 1660 0 0 -35z"/>
<path d="M1250 2520 c-19 -19 -20 -33 -20 -484 l0 -465 26 -20 c35 -27 59 -26
89 4 l25 24 0 454 c0 444 0 455 -21 481 -25 32 -70 35 -99 6z"/>
<path d="M3771 2514 c-21 -26 -21 -37 -21 -481 l0 -454 25 -24 c30 -30 54 -31
89 -4 l26 20 0 465 c0 451 -1 465 -20 484 -29 29 -74 26 -99 -6z"/>
<path d="M2485 2686 c-41 -18 -82 -68 -96 -115 -30 -101 44 -208 149 -219 65
-6 114 11 151 53 74 85 61 200 -31 268 -35 26 -130 33 -173 13z m106 -142 c17
-21 0 -49 -31 -49 -31 0 -48 28 -31 49 8 9 21 16 31 16 10 0 23 -7 31 -16z"/>
</g>
</svg>
