<?xml version="1.0" standalone="no"?>
<!DOCTYPE svg PUBLIC "-//W3C//DTD SVG 20010904//EN"
 "http://www.w3.org/TR/2001/REC-SVG-20010904/DTD/svg10.dtd">
<svg version="1.0" xmlns="http://www.w3.org/2000/svg"
 width="512.000000pt" height="512.000000pt" viewBox="0 0 512.000000 512.000000"
 preserveAspectRatio="xMidYMid meet">

<g transform="translate(0.000000,512.000000) scale(0.100000,-0.100000)"
fill="#000000" stroke="none">
<path d="M328 4759 c-119 -28 -229 -120 -287 -239 l-36 -75 -3 -2023 -2 -2023
24 -24 25 -25 2511 0 2511 0 24 25 25 24 0 1998 c0 1636 -3 2007 -14 2048 -42
157 -165 279 -317 314 -56 13 -4407 13 -4461 0z m4464 -159 c68 -25 132 -90
158 -158 17 -44 20 -77 20 -212 l0 -160 -325 0 -326 0 -24 -25 c-32 -31 -32
-69 0 -100 l24 -25 326 0 325 0 0 -1710 0 -1710 -2410 0 -2410 0 0 1710 0
1710 1935 0 1936 0 24 25 c32 31 32 69 0 100 l-24 25 -1936 0 -1935 0 0 160
c0 135 3 167 20 212 25 67 89 132 156 158 48 19 101 19 2231 20 2155 0 2183 0
2235 -20z"/>
<path d="M375 4395 c-14 -13 -25 -36 -25 -50 0 -33 42 -75 75 -75 33 0 75 42
75 75 0 33 -42 75 -75 75 -14 0 -37 -11 -50 -25z"/>
<path d="M725 4395 c-14 -13 -25 -36 -25 -50 0 -33 42 -75 75 -75 33 0 75 42
75 75 0 33 -42 75 -75 75 -14 0 -37 -11 -50 -25z"/>
<path d="M1075 4395 c-14 -13 -25 -36 -25 -50 0 -33 42 -75 75 -75 33 0 75 42
75 75 0 33 -42 75 -75 75 -14 0 -37 -11 -50 -25z"/>
<path d="M3745 4395 c-14 -13 -25 -36 -25 -50 0 -14 11 -37 25 -50 l24 -25
476 0 476 0 24 25 c14 13 25 36 25 50 0 14 -11 37 -25 50 l-24 25 -476 0 -476
0 -24 -25z"/>
<path d="M902 3350 c-14 -14 -22 -33 -22 -55 0 -54 30 -75 107 -75 l63 0 0
-835 0 -835 -95 0 -95 0 0 150 c0 147 -1 152 -25 175 -13 14 -36 25 -50 25
-14 0 -37 -11 -50 -25 -24 -23 -25 -28 -25 -175 l0 -150 -105 0 -105 0 0 625
0 625 150 0 c147 0 152 1 175 25 32 31 32 69 0 100 -24 25 -25 25 -225 25
-200 0 -201 0 -225 -25 l-25 -24 0 -726 0 -726 25 -24 24 -25 1251 0 1251 0
24 25 25 24 0 726 0 726 -25 24 -24 25 -326 0 -325 0 0 135 0 135 63 0 c50 0
68 4 85 20 30 28 30 82 0 110 -21 20 -31 20 -748 20 -717 0 -727 0 -748 -20z
m1198 -965 l0 -835 -100 0 -100 0 0 68 c0 91 -23 156 -75 207 -98 98 -252 98
-350 0 -52 -51 -75 -116 -75 -207 l0 -68 -100 0 -100 0 0 835 0 835 450 0 450
0 0 -835z m700 -210 l0 -625 -95 0 -95 0 0 150 c0 147 -1 152 -25 175 -13 14
-36 25 -50 25 -14 0 -37 -11 -50 -25 -24 -23 -25 -28 -25 -175 l0 -150 -105 0
-105 0 0 625 0 625 275 0 275 0 0 -625z m-1101 -439 c36 -19 51 -55 51 -126
l0 -60 -100 0 -100 0 0 63 c1 68 15 103 51 123 31 17 64 17 98 0z"/>
<path d="M1425 2995 c-23 -22 -25 -31 -25 -125 0 -94 2 -103 25 -125 13 -14
36 -25 50 -25 14 0 37 11 50 25 23 22 25 31 25 125 0 94 -2 103 -25 125 -13
14 -36 25 -50 25 -14 0 -37 -11 -50 -25z"/>
<path d="M1775 2995 c-23 -22 -25 -31 -25 -125 0 -94 2 -103 25 -125 13 -14
36 -25 50 -25 14 0 37 11 50 25 23 22 25 31 25 125 0 94 -2 103 -25 125 -13
14 -36 25 -50 25 -14 0 -37 -11 -50 -25z"/>
<path d="M1425 2375 c-23 -22 -25 -31 -25 -125 0 -94 2 -103 25 -125 13 -14
36 -25 50 -25 14 0 37 11 50 25 23 22 25 31 25 125 0 94 -2 103 -25 125 -13
14 -36 25 -50 25 -14 0 -37 -11 -50 -25z"/>
<path d="M1775 2375 c-23 -22 -25 -31 -25 -125 0 -94 2 -103 25 -125 13 -14
36 -25 50 -25 14 0 37 11 50 25 23 22 25 31 25 125 0 94 -2 103 -25 125 -13
14 -36 25 -50 25 -14 0 -37 -11 -50 -25z"/>
<path d="M2485 2375 c-23 -22 -25 -31 -25 -125 0 -94 2 -103 25 -125 13 -14
36 -25 50 -25 14 0 37 11 50 25 23 22 25 31 25 125 0 94 -2 103 -25 125 -13
14 -36 25 -50 25 -14 0 -37 -11 -50 -25z"/>
<path d="M3865 3009 c-268 -45 -514 -253 -601 -509 -62 -184 -57 -359 14 -542
145 -375 573 -575 955 -448 124 42 217 99 308 189 441 441 207 1189 -408 1307
-81 15 -189 17 -268 3z m260 -154 c280 -58 495 -323 495 -610 0 -289 -213
-551 -495 -610 -441 -92 -833 300 -740 740 30 143 116 279 228 362 156 116
330 156 512 118z"/>
<path d="M4122 2361 c-103 -99 -209 -202 -236 -229 l-49 -51 -84 75 c-92 82
-118 90 -158 49 -47 -46 -37 -69 87 -188 114 -108 144 -127 178 -111 32 15
531 507 541 533 18 46 -24 101 -77 101 -9 0 -99 -81 -202 -179z"/>
<path d="M735 2375 c-23 -22 -25 -31 -25 -125 0 -94 2 -103 25 -125 13 -14 36
-25 50 -25 14 0 37 11 50 25 23 22 25 31 25 125 0 94 -2 103 -25 125 -13 14
-36 25 -50 25 -14 0 -37 -11 -50 -25z"/>
<path d="M725 1175 c-14 -13 -25 -36 -25 -50 0 -14 11 -37 25 -50 l24 -25 421
0 421 0 24 25 c32 31 32 69 0 100 l-24 25 -421 0 -421 0 -24 -25z"/>
<path d="M1865 1175 c-14 -13 -25 -36 -25 -50 0 -33 42 -75 75 -75 33 0 75 42
75 75 0 33 -42 75 -75 75 -14 0 -37 -11 -50 -25z"/>
<path d="M2215 1175 c-14 -13 -25 -36 -25 -50 0 -14 11 -37 25 -50 24 -24 28
-25 180 -25 152 0 156 1 180 25 14 13 25 36 25 50 0 14 -11 37 -25 50 -24 24
-28 25 -180 25 -152 0 -156 -1 -180 -25z"/>
</g>
</svg>
