<?xml version="1.0" standalone="no"?>
<!DOCTYPE svg PUBLIC "-//W3C//DTD SVG 20010904//EN"
 "http://www.w3.org/TR/2001/REC-SVG-20010904/DTD/svg10.dtd">
<svg version="1.0" xmlns="http://www.w3.org/2000/svg"
 width="64.000000pt" height="64.000000pt" viewBox="0 0 64.000000 64.000000"
 preserveAspectRatio="xMidYMid meet">

<g transform="translate(0.000000,64.000000) scale(0.100000,-0.100000)"
fill="#000000" stroke="none">
<path d="M67 633 c-4 -3 -7 -17 -7 -30 0 -12 -4 -23 -10 -23 -5 0 -10 -13 -10
-30 0 -29 1 -30 50 -30 49 0 50 1 50 29 0 16 -6 32 -12 34 -7 3 7 5 32 5 25 0
39 -2 33 -5 -7 -2 -13 -18 -13 -34 0 -28 1 -29 50 -29 49 0 50 1 50 29 0 16
-6 32 -12 34 -7 3 7 5 32 5 25 0 39 -2 33 -5 -7 -2 -13 -18 -13 -34 0 -28 1
-29 50 -29 49 0 50 1 50 29 0 16 -6 32 -12 34 -7 3 7 5 32 5 25 0 39 -2 32 -5
-6 -2 -12 -18 -12 -34 0 -28 1 -29 50 -29 49 0 50 1 50 30 0 17 -4 30 -9 30
-5 0 -11 12 -13 28 -3 31 -44 45 -54 18 -8 -21 -80 -22 -88 -1 -3 8 -15 15
-26 15 -11 0 -23 -7 -26 -15 -4 -10 -20 -15 -44 -15 -24 0 -40 5 -44 15 -3 8
-15 15 -26 15 -11 0 -23 -7 -26 -15 -4 -10 -20 -15 -44 -15 -24 0 -40 5 -44
15 -5 15 -37 21 -49 8z m33 -38 c0 -14 -4 -25 -10 -25 -5 0 -10 11 -10 25 0
14 5 25 10 25 6 0 10 -11 10 -25z m140 0 c0 -14 -4 -25 -10 -25 -5 0 -10 11
-10 25 0 14 5 25 10 25 6 0 10 -11 10 -25z m140 0 c0 -14 -4 -25 -10 -25 -5 0
-10 11 -10 25 0 14 5 25 10 25 6 0 10 -11 10 -25z m140 0 c0 -14 -4 -25 -10
-25 -5 0 -10 11 -10 25 0 14 5 25 10 25 6 0 10 -11 10 -25z m-412 -52 c-10 -2
-26 -2 -35 0 -10 3 -2 5 17 5 19 0 27 -2 18 -5z m140 0 c-10 -2 -26 -2 -35 0
-10 3 -2 5 17 5 19 0 27 -2 18 -5z m140 0 c-10 -2 -26 -2 -35 0 -10 3 -2 5 17
5 19 0 27 -2 18 -5z m140 0 c-10 -2 -26 -2 -35 0 -10 3 -2 5 17 5 19 0 27 -2
18 -5z"/>
<path d="M0 415 c0 -123 4 -195 10 -195 6 0 10 50 10 130 l0 130 280 0 280 0
0 -155 c0 -97 4 -155 10 -155 6 0 10 80 10 220 0 213 -1 220 -20 220 -11 0
-20 -4 -20 -10 0 -5 5 -10 10 -10 6 0 10 -20 10 -45 l0 -45 -280 0 -280 0 0
45 c0 25 5 45 10 45 6 0 10 5 10 10 0 6 -9 10 -20 10 -19 0 -20 -7 -20 -195z"/>
<path d="M80 420 l0 -40 40 0 40 0 0 40 0 40 -40 0 -40 0 0 -40z m60 0 c0 -13
-7 -20 -20 -20 -13 0 -20 7 -20 20 0 13 7 20 20 20 13 0 20 -7 20 -20z"/>
<path d="M200 420 l0 -40 40 0 40 0 0 40 0 40 -40 0 -40 0 0 -40z m60 0 c0
-13 -7 -20 -20 -20 -13 0 -20 7 -20 20 0 13 7 20 20 20 13 0 20 -7 20 -20z"/>
<path d="M320 420 l0 -40 40 0 40 0 0 40 0 40 -40 0 -40 0 0 -40z m60 0 c0
-13 -7 -20 -20 -20 -13 0 -20 7 -20 20 0 13 7 20 20 20 13 0 20 -7 20 -20z"/>
<path d="M440 420 l0 -40 40 0 40 0 0 40 0 40 -40 0 -40 0 0 -40z m60 0 c0
-13 -7 -20 -20 -20 -13 0 -20 7 -20 20 0 13 7 20 20 20 13 0 20 -7 20 -20z"/>
<path d="M80 310 l0 -40 40 0 40 0 0 40 0 40 -40 0 -40 0 0 -40z m60 0 c0 -13
-7 -20 -20 -20 -13 0 -20 7 -20 20 0 13 7 20 20 20 13 0 20 -7 20 -20z"/>
<path d="M200 310 l0 -40 40 0 40 0 0 40 0 40 -40 0 -40 0 0 -40z m60 0 c0
-13 -7 -20 -20 -20 -13 0 -20 7 -20 20 0 13 7 20 20 20 13 0 20 -7 20 -20z"/>
<path d="M362 320 c-34 -21 -62 -71 -62 -111 0 -33 29 -86 58 -105 14 -9 48
-18 76 -19 65 -3 83 -10 127 -52 40 -38 72 -41 77 -8 2 13 -11 33 -33 55 -19
18 -35 41 -35 50 0 9 -3 20 -7 24 -4 4 -8 29 -9 55 -1 56 -23 94 -69 115 -44
21 -83 20 -123 -4z m125 -20 c71 -43 63 -149 -14 -185 -76 -36 -160 24 -149
108 10 83 91 121 163 77z m43 -185 c-7 -8 -17 -15 -23 -15 -5 0 -2 9 8 20 21
23 35 19 15 -5z m60 -50 c18 -19 30 -38 27 -42 -8 -7 -77 55 -77 69 0 16 17 7
50 -27z"/>
<path d="M381 296 c-56 -31 -66 -99 -22 -148 39 -44 98 -46 138 -5 78 78 -19
207 -116 153z m97 -26 c43 -41 38 -93 -13 -126 -30 -20 -66 -13 -95 18 -63 68
40 171 108 108z"/>
<path d="M392 267 c-10 -12 -4 -14 33 -13 25 1 44 5 42 11 -5 16 -62 18 -75 2z"/>
<path d="M480 224 c0 -8 5 -12 10 -9 6 4 8 11 5 16 -9 14 -15 11 -15 -7z"/>
<path d="M80 200 l0 -40 40 0 40 0 0 40 0 40 -40 0 -40 0 0 -40z m60 0 c0 -13
-7 -20 -20 -20 -13 0 -20 7 -20 20 0 13 7 20 20 20 13 0 20 -7 20 -20z"/>
<path d="M200 200 l0 -40 40 0 40 0 0 40 0 40 -40 0 -40 0 0 -40z m60 0 c0
-13 -7 -20 -20 -20 -13 0 -20 7 -20 20 0 13 7 20 20 20 13 0 20 -7 20 -20z"/>
<path d="M0 140 l0 -60 150 0 c93 0 150 4 150 10 0 6 -53 10 -140 10 -87 0
-140 4 -140 10 0 6 53 10 140 10 87 0 140 4 140 10 0 6 -53 10 -140 10 l-140
0 0 30 c0 17 -4 30 -10 30 -6 0 -10 -27 -10 -60z"/>
<path d="M580 140 c0 -5 5 -10 10 -10 6 0 10 5 10 10 0 6 -4 10 -10 10 -5 0
-10 -4 -10 -10z"/>
</g>
</svg>
